<?xml version="1.0"?>
<svg xmlns="http://www.w3.org/2000/svg" width="291.365mm" height="100mm" viewBox="-10 -10 291.365 100" fill="none" stroke="black" stroke-width="0.2">
    <g>
        <line x1="0" y1="34" x2="0" y2="46"/>
        <path d="M0,46 A6,6 0 0,0 12,46 "/>
        <path d="M12,34 A6,6 0 0,0 0,34 "/>
        <circle cx="6" cy="34" r="1.5"/>
        <circle cx="265.365" cy="21.78" r="1.75"/>
        <circle cx="265.365" cy="5.78" r="1.5"/>
        <circle cx="265.365" cy="12.78" r="1.75"/>
        <circle cx="12" cy="62.72" r="1.5"/>
        <circle cx="12" cy="74" r="1.5"/>
        <path d="M12,57.44 A6,6 0 0,0 18,51.44 "/>
        <line x1="271.365" y1="45.44" x2="271.365" y2="80"/>
        <line x1="18" y1="45.44" x2="271.365" y2="45.44"/>
        <path d="M18,28.56 A6,6 0 0,0 12,22.56 "/>
        <line x1="6" y1="0" x2="271.365" y2="0"/>
        <line x1="12" y1="46" x2="12" y2="34"/>
        <line x1="18" y1="34.56" x2="271.365" y2="34.56"/>
        <line x1="271.365" y1="34.56" x2="271.365" y2="0"/>
        <circle cx="265.365" cy="28.78" r="1.5"/>
        <line x1="6" y1="80" x2="271.365" y2="80"/>
        <circle cx="12" cy="17.28" r="1.5"/>
        <line x1="6" y1="0" x2="6" y2="22.56"/>
        <circle cx="12" cy="6" r="1.5"/>
        <circle cx="265.365" cy="73.47" r="1.5"/>
        <line x1="6" y1="22.56" x2="12" y2="22.56"/>
        <circle cx="265.365" cy="62.72" r="2.5"/>
        <circle cx="265.365" cy="51.97" r="1.5"/>
        <line x1="18" y1="51.44" x2="18" y2="45.44"/>
        <line x1="18" y1="28.56" x2="18" y2="34.56"/>
        <line x1="6" y1="57.44" x2="12" y2="57.44"/>
        <circle cx="6" cy="46" r="1.5"/>
        <line x1="6" y1="80" x2="6" y2="57.44"/>
    </g>
</svg>
