<?xml version="1.0"?>
<svg xmlns="http://www.w3.org/2000/svg" width="291.365mm" height="100mm" viewBox="-10 -10 291.365 100" fill="none" stroke="black" stroke-width="0.2">
    <g stroke="#f00">
        <circle cx="6" cy="34" r="1.5"/>
        <circle cx="6" cy="46" r="1.5"/>
        <path d="M-0.05,46 A6.05,6.05 0 0,0 12.05,46 L12.05,34 A6.05,6.05 0 0,0 -0.05,34 L-0.05,46"/>
    </g>
    <g>
        <circle cx="265.365" cy="21.78" r="1.75"/>
        <circle cx="265.365" cy="5.78" r="1.5"/>
        <circle cx="265.365" cy="12.78" r="1.75"/>
        <circle cx="265.365" cy="28.78" r="1.5"/>
        <circle cx="12" cy="17.28" r="1.5"/>
        <circle cx="12" cy="6" r="1.5"/>
        <path d="M5.95,-0.05 L5.95,22.61 L12,22.61 A5.95,5.95 0 0,1 17.95,28.56 L17.95,34.61 L271.415,34.61 L271.415,-0.05 L5.95,-0.05"/>
    </g>
    <g stroke="#00f">
        <circle cx="12" cy="62.72" r="1.5"/>
        <circle cx="12" cy="74" r="1.5"/>
        <circle cx="265.365" cy="73.47" r="1.5"/>
        <circle cx="265.365" cy="62.72" r="2.5"/>
        <circle cx="265.365" cy="51.97" r="1.5"/>
        <path d="M5.95,80.05 L5.95,57.39 L12,57.39 A5.95,5.95 0 0,0 17.95,51.44 L17.95,45.39 L271.415,45.39 L271.415,80.05 L5.95,80.05"/>
    </g>
</svg>

