<?xml version="1.0"?>
<svg xmlns="http://www.w3.org/2000/svg" width="291.365mm" height="100mm" viewBox="-10 -10 291.365 100" fill="none" stroke="black" stroke-width="0.2">
    <g stroke="#f00">
        <circle cx="6" cy="34" r="1.5"/>
        <circle cx="6" cy="46" r="1.5"/>
        <path d="M0,46 A6,6 0 0,0 12,46 L12,34 A6,6 0 0,0 0,34 L0,46"/>
    </g>
    <g>
        <circle cx="265.365" cy="21.78" r="1.75"/>
        <circle cx="265.365" cy="5.78" r="1.5"/>
        <circle cx="265.365" cy="12.78" r="1.75"/>
        <circle cx="265.365" cy="28.78" r="1.5"/>
        <circle cx="12" cy="17.28" r="1.5"/>
        <circle cx="12" cy="6" r="1.5"/>
        <path d="M6,0 L6,22.56 L12,22.56 A6,6 0 0,1 18,28.56 L18,34.56 L271.365,34.56 L271.365,0 L6,0"/>
    </g>
    <g stroke="#00f">
        <circle cx="12" cy="62.72" r="1.5"/>
        <circle cx="12" cy="74" r="1.5"/>
        <circle cx="265.365" cy="73.47" r="1.5"/>
        <circle cx="265.365" cy="62.72" r="2.5"/>
        <circle cx="265.365" cy="51.97" r="1.5"/>
        <path d="M6,80 L6,57.44 L12,57.44 A6,6 0 0,0 18,51.44 L18,45.44 L271.365,45.44 L271.365,80 L6,80"/>
    </g>
</svg>

